# xmcd CD database file
#
# Track frame offsets:
#	150
#	24742
#	41074
#	62937
#	71239
#	93326
#	110515
#	125158
#	150395
#	163963
#	183523
#	197272
#	222357
#	231152
#	239505
#	265849
#	280500
#
# Disc length: 3867 seconds
#
# Revision: 1
# Processed by: cddbd v1.5.2PL0 Copyright (c) Steve Scherf et al.
# Submitted via: CDex 1.51
#
DISCID=fc0f1911
DTITLE=Barbara Dane and Lighting Hopkins - Sometimes I Believe She Loves Me
DYEAR=1966
DGENRE=Blues
TTITLE0=I'm Going Back Baby
TTITLE1=I Know You Got Another Man
TTITLE2=Sometimes I Believe She Loves Me
TTITLE3=Baby, Shake That Thing
TTITLE4=It's A Lonesome Old Town
TTITLE5=Don't Push Me
TTITLE6=Let Me Be Your Rag Doll
TTITLE7=Mother Earth
TTITLE8=Mama Told Papa
TTITLE9=Careless Love
TTITLE10=Love With A Feeling
TTITLE11=Betty And Dupree
TTITLE12=Don't You Push Me Down
TTITLE13=Bury Me In My Overalls
TTITLE14=Deportees
TTITLE15=Hold On
TTITLE16=Jesus Won't You Come By Here
EXTD=YEAR: 1966
EXTT0=
EXTT1=
EXTT2=
EXTT3=
EXTT4=
EXTT5=
EXTT6=
EXTT7=
EXTT8=
EXTT9=
EXTT10=
EXTT11=
EXTT12=
EXTT13=
EXTT14=
EXTT15=
EXTT16=
PLAYORDER=
